<svg width="100" height="17" viewBox="0 0 100 17" fill="none" xmlns="http://www.w3.org/2000/svg">
<path d="M19.0813 0C22.4325 0 23.9599 1.82414 24.8718 6.93175L26.536 16.3261H22.3185L20.5175 6.15649C20.2211 4.46915 19.7424 3.8079 18.8533 3.8079C17.9642 3.8079 17.4855 4.46915 17.1891 6.15649L15.3881 16.3261H11.1478L9.34686 6.15649C9.0505 4.46915 8.57176 3.8079 7.68266 3.8079C6.79357 3.8079 6.31483 4.46915 6.01847 6.15649L4.21748 16.3261H0L1.6642 6.93175C2.57609 1.82414 4.1035 0 7.45469 0C10.8287 0 12.4929 1.91535 12.8804 6.2705L13.2224 10.0784H13.3136L13.6555 6.2705C14.0431 1.91535 15.7073 0 19.0813 0Z" fill="#020617"/>
<path d="M43.8419 6.93176L45.5061 16.3261H41.2886L40.6275 12.655H33.1956L32.5345 16.3261H28.317L29.9812 6.93176C30.8931 1.77855 32.6712 9.51365e-06 36.9115 9.51365e-06C41.1518 9.51365e-06 42.93 1.77855 43.8419 6.93176ZM34.1759 7.06857L33.8567 8.84711H39.9664L39.6472 7.06857C39.214 4.60597 38.5529 3.80791 36.9115 3.80791C35.2701 3.80791 34.609 4.60597 34.1759 7.06857Z" fill="#020617"/>
<path d="M51.5046 7.88943V16.3261H47.2871V7.88943C47.2871 2.66782 50.0456 9.51365e-06 55.4029 9.51365e-06C60.7603 9.51365e-06 63.5187 2.66782 63.5187 7.88943V16.3261H59.3013V7.88943C59.3013 5.06201 58.1158 3.80791 55.4029 3.80791C52.6901 3.80791 51.5046 5.06201 51.5046 7.88943Z" fill="#020617"/>
<path d="M73.5524 16.6909C68.6966 16.6909 65.5733 14.6388 65.2998 11.2869H69.5173C69.9504 12.5182 71.2954 13.1339 73.5524 13.1339C75.6269 13.1339 76.8124 12.4726 76.8124 11.3325C76.8124 10.58 76.402 10.2608 75.3306 10.1468L72.2301 9.82759C67.5567 9.34875 65.5961 7.93504 65.5961 5.15322C65.5961 1.98377 68.4686 9.51365e-06 73.0052 9.51365e-06C77.6331 9.51365e-06 80.3687 1.82415 80.6879 5.13042H76.4704C76.0829 4.10433 74.8974 3.55709 73.0052 3.55709C70.9991 3.55709 69.8136 4.12714 69.8136 5.15322C69.8136 5.86007 70.1784 6.1337 71.5918 6.27051L74.4871 6.56693C79.3885 7.06857 81.0299 8.27707 81.0299 11.4237C81.0299 14.7072 78.2258 16.6909 73.5524 16.6909Z" fill="#020617"/>
<path d="M98.3358 6.93176L100 16.3261H95.7825L95.1214 12.655H87.6895L87.0284 16.3261H82.8109L84.4751 6.93176C85.387 1.77855 87.1652 9.51365e-06 91.4054 9.51365e-06C95.6457 9.51365e-06 97.4239 1.77855 98.3358 6.93176ZM88.6698 7.06857L88.3506 8.84711H94.4603L94.1411 7.06857C93.708 4.60597 93.0468 3.80791 91.4054 3.80791C89.764 3.80791 89.1029 4.60597 88.6698 7.06857Z" fill="#020617"/>
</svg>
