<svg width="32" height="32" viewBox="0 0 32 32" fill="none" xmlns="http://www.w3.org/2000/svg">
<rect width="32" height="32" rx="16" fill="#E2E8F0"/>
<g clip-path="url(#clip0_1_27928)">
<path d="M7 16C7 17.1819 7.23279 18.3522 7.68508 19.4442C8.13738 20.5361 8.80031 21.5282 9.63604 22.364C10.4718 23.1997 11.4639 23.8626 12.5558 24.3149C13.6478 24.7672 14.8181 25 16 25C17.1819 25 18.3522 24.7672 19.4442 24.3149C20.5361 23.8626 21.5282 23.1997 22.364 22.364C23.1997 21.5282 23.8626 20.5361 24.3149 19.4442C24.7672 18.3522 25 17.1819 25 16C25 14.8181 24.7672 13.6478 24.3149 12.5558C23.8626 11.4639 23.1997 10.4718 22.364 9.63604C21.5282 8.80031 20.5361 8.13738 19.4442 7.68508C18.3522 7.23279 17.1819 7 16 7C14.8181 7 13.6478 7.23279 12.5558 7.68508C11.4639 8.13738 10.4718 8.80031 9.63604 9.63604C8.80031 10.4718 8.13738 11.4639 7.68508 12.5558C7.23279 13.6478 7 14.8181 7 16Z" stroke="#1E293B" stroke-width="2" stroke-linecap="round" stroke-linejoin="round"/>
<path d="M13 14C13 14.7956 13.3161 15.5587 13.8787 16.1213C14.4413 16.6839 15.2044 17 16 17C16.7956 17 17.5587 16.6839 18.1213 16.1213C18.6839 15.5587 19 14.7956 19 14C19 13.2044 18.6839 12.4413 18.1213 11.8787C17.5587 11.3161 16.7956 11 16 11C15.2044 11 14.4413 11.3161 13.8787 11.8787C13.3161 12.4413 13 13.2044 13 14Z" stroke="#1E293B" stroke-width="2" stroke-linecap="round" stroke-linejoin="round"/>
<path d="M10.168 22.849C10.4155 22.0252 10.922 21.3032 11.6123 20.79C12.3026 20.2768 13.1399 19.9997 14 20H18C18.8613 19.9997 19.6996 20.2774 20.3904 20.7918C21.0812 21.3062 21.5875 22.0298 21.834 22.855" stroke="#1E293B" stroke-width="2" stroke-linecap="round" stroke-linejoin="round"/>
</g>
<defs>
<clipPath id="clip0_1_27928">
<rect width="24" height="24" fill="white" transform="translate(4 4)"/>
</clipPath>
</defs>
</svg>
